<?xml version="1.0" standalone="no"?>
<!DOCTYPE svg PUBLIC "-//W3C//DTD SVG 20010904//EN"
 "http://www.w3.org/TR/2001/REC-SVG-20010904/DTD/svg10.dtd">
<svg version="1.0" xmlns="http://www.w3.org/2000/svg"
 width="700.000000pt" height="700.000000pt" viewBox="0 0 700.000000 700.000000"
 preserveAspectRatio="xMidYMid meet">
<metadata>
Created by potrace 1.11, written by Peter Selinger 2001-2013
</metadata>
<g transform="translate(0.000000,700.000000) scale(0.100000,-0.100000)"
fill="#000000" stroke="none">
<path d="M3417 6755 c-1 -2 -45 -6 -97 -9 -103 -8 -119 -10 -255 -31 -127 -21
-137 -23 -265 -55 -412 -104 -803 -298 -1095 -545 -33 -27 -70 -59 -83 -70
-67 -56 -238 -238 -305 -325 -23 -30 -48 -61 -55 -69 -21 -22 -156 -230 -200
-308 -72 -128 -202 -412 -217 -473 -2 -8 -15 -49 -30 -90 -14 -41 -42 -135
-61 -209 -33 -129 -37 -148 -49 -223 -3 -18 -10 -55 -15 -83 -13 -68 -17 -99
-25 -175 -4 -36 -9 -78 -11 -95 -25 -195 -24 -737 1 -960 22 -189 55 -405 70
-455 2 -8 6 -27 9 -41 7 -41 63 -246 87 -319 95 -291 235 -567 401 -792 317
-432 781 -770 1333 -972 184 -67 486 -143 685 -172 79 -12 94 -13 150 -19 30
-3 64 -7 75 -10 101 -20 726 -28 900 -11 50 5 104 10 120 11 63 7 184 26 280
45 55 11 111 22 124 25 53 10 311 86 386 114 559 206 857 493 831 801 -15 179
-96 310 -263 426 l-52 37 -38 -29 c-21 -16 -67 -48 -103 -71 -36 -23 -70 -46
-76 -52 -7 -5 -65 -38 -130 -73 -345 -183 -684 -302 -956 -334 -29 -4 -55 -8
-58 -9 -42 -24 -680 -24 -808 -1 -9 2 -42 7 -72 11 -30 4 -64 9 -75 12 -11 2
-33 6 -50 8 -28 4 -158 32 -180 39 -5 2 -23 6 -40 10 -246 63 -536 204 -725
354 -337 267 -582 673 -701 1162 -36 148 -40 135 41 145 30 3 96 12 145 20 50
7 113 16 140 20 28 3 64 8 80 10 17 3 127 18 245 35 118 17 231 33 250 35 19
3 53 8 75 11 22 2 137 18 255 34 118 17 233 33 255 36 22 3 51 7 65 9 14 2 45
7 70 10 25 3 72 10 105 15 33 5 78 11 100 14 139 18 204 27 221 30 10 2 42 7
69 10 108 15 271 37 295 41 14 2 43 7 65 9 50 6 261 36 295 41 14 2 43 6 65 9
48 6 260 36 295 41 21 3 152 22 283 40 15 2 64 9 110 15 45 6 111 15 147 20
36 5 81 12 100 14 34 5 305 42 385 53 57 8 167 46 222 78 61 35 131 109 161
167 50 102 60 175 56 408 -2 118 -6 226 -8 240 -2 14 -7 47 -10 74 -10 80 -26
177 -41 241 -8 33 -17 74 -19 91 -21 118 -141 432 -233 604 -76 143 -225 375
-263 410 -3 3 -29 34 -59 70 -80 96 -256 267 -352 341 -109 85 -245 179 -258
179 -6 0 -11 4 -11 8 0 4 -12 13 -27 19 -16 7 -70 34 -121 62 -261 139 -590
244 -902 286 -25 3 -56 8 -70 10 -88 13 -190 18 -373 20 -114 1 -208 1 -210 0z
m423 -879 c14 -3 48 -7 75 -10 92 -10 235 -42 320 -71 106 -37 133 -49 209
-86 73 -37 173 -95 186 -109 3 -3 31 -25 63 -49 148 -109 318 -315 430 -521
73 -134 167 -394 192 -528 3 -15 7 -36 9 -47 7 -35 25 -158 31 -207 5 -45 4
-48 -17 -49 -13 0 -30 -2 -39 -4 -8 -1 -41 -6 -71 -9 -31 -4 -65 -9 -77 -11
-12 -2 -74 -11 -139 -20 -64 -9 -128 -18 -142 -20 -14 -2 -50 -7 -80 -10 -30
-4 -57 -8 -60 -10 -3 -1 -36 -6 -75 -9 -38 -4 -77 -9 -85 -11 -8 -2 -33 -6
-55 -9 -127 -16 -204 -27 -221 -30 -10 -2 -46 -7 -79 -11 -72 -9 -75 -10 -145
-20 -30 -4 -62 -9 -71 -10 -9 -2 -40 -6 -70 -10 -30 -3 -65 -8 -79 -10 -14 -2
-61 -9 -105 -15 -44 -6 -91 -13 -105 -15 -14 -2 -79 -11 -144 -20 -66 -8 -131
-17 -145 -19 -29 -5 -99 -14 -151 -21 -19 -2 -66 -9 -105 -14 -38 -6 -88 -13
-110 -16 -22 -3 -53 -8 -70 -10 -16 -3 -52 -7 -80 -10 -27 -3 -61 -8 -75 -10
-14 -3 -43 -7 -65 -11 -22 -3 -51 -7 -65 -10 -14 -2 -95 -13 -180 -24 -85 -11
-164 -22 -175 -24 -11 -2 -49 -7 -85 -11 -36 -4 -67 -8 -70 -10 -3 -2 -32 -6
-65 -9 -56 -6 -74 -9 -150 -21 -16 -2 -55 -7 -85 -11 -30 -3 -72 -9 -93 -14
-20 -4 -39 -4 -42 0 -8 12 4 206 21 345 6 49 25 185 29 205 15 77 59 259 67
279 5 14 11 33 13 41 23 109 179 430 269 555 179 249 405 443 661 569 155 77
245 110 385 141 137 31 147 33 244 41 44 3 82 8 84 9 5 5 355 -3 382 -9z"/>
</g>
</svg>
