<svg xmlns="http://www.w3.org/2000/svg" viewBox="0 0 311.2 85.39"><path d="M5.85,33.41Q7.76,42.65,18,42.65a13.91,13.91,0,0,0,5.36-1,15.47,15.47,0,0,0,3.81-2.12,3,3,0,0,1,1.69,2.68A2.74,2.74,0,0,1,28,44.13a8,8,0,0,1-2.4,1.62A16.74,16.74,0,0,1,22,46.88a21.24,21.24,0,0,1-4.34.42q-8.18,0-12.93-4.44T0,29.89a20.64,20.64,0,0,1,1.16-7.16,15.41,15.41,0,0,1,3.25-5.32,14,14,0,0,1,5-3.35,16.78,16.78,0,0,1,6.28-1.16A15.72,15.72,0,0,1,21.5,14a13.49,13.49,0,0,1,4.62,3,14,14,0,0,1,3,4.59,15.22,15.22,0,0,1,1.09,5.81,3,3,0,0,1-.71,2.22,3.24,3.24,0,0,1-2,.81Zm9.73-15.93a9.35,9.35,0,0,0-7.12,3c-1.88,2-2.87,4.85-3,8.56l19.38-2.68A10.37,10.37,0,0,0,22.17,20,8.66,8.66,0,0,0,15.58,17.48Z" style="fill:#303031"/><path d="M44.05,46.24a7.71,7.71,0,0,1-1,.32,6.81,6.81,0,0,1-1.55.17c-2,0-3-.84-3-2.53V20.3A4.86,4.86,0,0,1,39,17.73a6.45,6.45,0,0,1,2-1.87,18.32,18.32,0,0,1,5-2.08,26.1,26.1,0,0,1,7.09-.88q5.64,0,5.64,2.82A3.66,3.66,0,0,1,58.5,17a3.5,3.5,0,0,1-.56,1c-.47-.1-1.08-.19-1.83-.29a19,19,0,0,0-2.26-.14,22.21,22.21,0,0,0-5.71.67,18.19,18.19,0,0,0-4.09,1.59Z" style="fill:#303031"/><path d="M85.32,19.38a9.06,9.06,0,0,0-5.95-1.83,16.33,16.33,0,0,0-5,.71,18.63,18.63,0,0,0-3.73,1.62V46.24a8.44,8.44,0,0,1-1.06.32,6.81,6.81,0,0,1-1.55.17c-2,0-3-.84-3-2.53v-24a4.46,4.46,0,0,1,.6-2.43,6.26,6.26,0,0,1,2.08-1.87,21,21,0,0,1,4.86-2,23.64,23.64,0,0,1,6.84-.92c4.27,0,7.65,1,10.11,2.89s3.7,5,3.7,9.09V46.24a7.74,7.74,0,0,1-1.09.32,6.92,6.92,0,0,1-1.51.17c-2,0-3-.84-3-2.53v-19C87.54,22.53,86.8,20.61,85.32,19.38Z" style="fill:#303031"/><path d="M107.77,33.41q1.91,9.24,12.13,9.24a14,14,0,0,0,5.36-1,15.57,15.57,0,0,0,3.8-2.12,3,3,0,0,1,1.69,2.68,2.74,2.74,0,0,1-.88,1.91,7.93,7.93,0,0,1-2.39,1.62A17,17,0,0,1,124,46.88a21.14,21.14,0,0,1-4.33.42q-8.19,0-12.94-4.44t-4.76-13a20.4,20.4,0,0,1,1.17-7.16,15.24,15.24,0,0,1,3.24-5.32,13.91,13.91,0,0,1,5-3.35,16.73,16.73,0,0,1,6.27-1.16A15.65,15.65,0,0,1,123.42,14,13.3,13.3,0,0,1,128,17a14,14,0,0,1,3,4.59,15,15,0,0,1,1.09,5.81,3,3,0,0,1-.7,2.22,3.27,3.27,0,0,1-2,.81Zm9.73-15.93a9.35,9.35,0,0,0-7.12,3c-1.88,2-2.86,4.85-3,8.56l19.39-2.68A10.37,10.37,0,0,0,124.09,20,8.64,8.64,0,0,0,117.5,17.48Z" style="fill:#303031"/><path d="M160.67,19.38a9.06,9.06,0,0,0-5.95-1.83,16.33,16.33,0,0,0-5,.71A18.63,18.63,0,0,0,146,19.88V46.24a8.44,8.44,0,0,1-1.06.32,6.81,6.81,0,0,1-1.55.17c-2,0-3-.84-3-2.53v-24a4.46,4.46,0,0,1,.6-2.43A6.26,6.26,0,0,1,143,15.86a21,21,0,0,1,4.86-2,23.64,23.64,0,0,1,6.84-.92c4.27,0,7.65,1,10.11,2.89s3.7,5,3.7,9.09V46.24a7.34,7.34,0,0,1-1.09.32,6.92,6.92,0,0,1-1.51.17c-2,0-3-.84-3-2.53v-19C162.89,22.53,162.15,20.61,160.67,19.38Z" style="fill:#303031"/><path d="M199.27,22.13q-1,3.32-2,6.7c-.68,2.26-1.38,4.42-2.08,6.48s-1.39,4-2.05,5.86-1.26,3.45-1.83,4.86a5.43,5.43,0,0,1-1.27.56,6.87,6.87,0,0,1-1.9.21,5.62,5.62,0,0,1-2.08-.38,2.24,2.24,0,0,1-1.3-1.24,41.68,41.68,0,0,1-2-5.49q-1.17-3.73-2.4-8.22t-2.33-9c-.73-3-1.32-5.67-1.79-7.93a5.53,5.53,0,0,1,1.23-.91,3.48,3.48,0,0,1,1.8-.43,2.46,2.46,0,0,1,2,.74,5.56,5.56,0,0,1,1,2.36c.42,2,.91,4.22,1.48,6.74s1.13,5,1.69,7.36S186.47,35,187,36.94s.85,3.43,1.09,4.37h.28q.42-1.28,1.23-3.81c.54-1.69,1.17-3.63,1.87-5.81s1.48-4.55,2.33-7.09,1.69-5.07,2.54-7.61a6.12,6.12,0,0,1,3-.71c1.73,0,2.82.61,3.24,1.84.84,2.44,1.66,4.87,2.43,7.29s1.49,4.67,2.15,6.73,1.22,3.91,1.69,5.54.85,2.85,1.13,3.7h.35Q212,35,213.86,27.91T217,13.82a4.3,4.3,0,0,1,2.4-.64,3,3,0,0,1,1.9.57,2.11,2.11,0,0,1,.7,1.76,18,18,0,0,1-.46,3q-.45,2.22-1.23,5.15c-.52,2-1.09,4-1.73,6.27s-1.28,4.4-1.93,6.49-1.28,4-1.87,5.71A38.81,38.81,0,0,1,213.22,46a3.62,3.62,0,0,1-1.16.53,6.58,6.58,0,0,1-1.87.24,6.71,6.71,0,0,1-2.22-.31,1.81,1.81,0,0,1-1.16-1q-.78-1.9-1.66-4.52c-.59-1.73-1.21-3.63-1.87-5.67s-1.33-4.19-2-6.45S199.92,24.34,199.27,22.13Z" style="fill:#303031"/><path d="M233.45,33.41q1.91,9.24,12.13,9.24a13.86,13.86,0,0,0,5.35-1,15.47,15.47,0,0,0,3.81-2.12,3,3,0,0,1,1.69,2.68,2.74,2.74,0,0,1-.88,1.91,8,8,0,0,1-2.4,1.62,16.74,16.74,0,0,1-3.52,1.13,21.14,21.14,0,0,1-4.33.42q-8.19,0-12.94-4.44t-4.76-13a20.4,20.4,0,0,1,1.17-7.16A15.24,15.24,0,0,1,232,17.41a13.91,13.91,0,0,1,5-3.35,16.69,16.69,0,0,1,6.27-1.16A15.65,15.65,0,0,1,249.1,14a13.3,13.3,0,0,1,4.62,3,14,14,0,0,1,3,4.59,15,15,0,0,1,1.09,5.81,3,3,0,0,1-.7,2.22,3.27,3.27,0,0,1-2,.81Zm9.73-15.93a9.35,9.35,0,0,0-7.12,3c-1.88,2-2.86,4.85-3,8.56l19.39-2.68A10.43,10.43,0,0,0,249.77,20,8.64,8.64,0,0,0,243.18,17.48Z" style="fill:#303031"/><path d="M265.52,3.52a3.42,3.42,0,0,1,1-2.5,3.57,3.57,0,0,1,2.64-1,3.47,3.47,0,0,1,2.61,1,3.46,3.46,0,0,1,1,2.5,3.42,3.42,0,0,1-3.59,3.53,3.57,3.57,0,0,1-2.64-1A3.43,3.43,0,0,1,265.52,3.52ZM272,46.24a8.44,8.44,0,0,1-1.06.32,6.75,6.75,0,0,1-1.55.17c-2,0-3-.84-3-2.53V14a8.19,8.19,0,0,1,1.09-.32,6.73,6.73,0,0,1,1.59-.18c2,0,3,.87,3,2.61Z" style="fill:#303031"/><path d="M303.34,19.38a9.06,9.06,0,0,0-5.95-1.83,16.33,16.33,0,0,0-5,.71,18.38,18.38,0,0,0-3.73,1.62V46.24a8.44,8.44,0,0,1-1.06.32,6.81,6.81,0,0,1-1.55.17c-2,0-3-.84-3-2.53v-24a4.55,4.55,0,0,1,.59-2.43,6.36,6.36,0,0,1,2.08-1.87,21.09,21.09,0,0,1,4.87-2,23.64,23.64,0,0,1,6.84-.92q6.41,0,10.11,2.89t3.7,9.09V46.24a7.74,7.74,0,0,1-1.09.32,7,7,0,0,1-1.52.17c-2,0-3-.84-3-2.53v-19C305.56,22.53,304.82,20.61,303.34,19.38Z" style="fill:#303031"/><path d="M12.9,66.15c-.33,1.1-.66,2.22-1,3.34s-.68,2.21-1,3.25-.7,2-1,2.92-.63,1.73-.91,2.43a2.48,2.48,0,0,1-.64.28,3,3,0,0,1-.95.11,2.71,2.71,0,0,1-1-.19,1.14,1.14,0,0,1-.65-.62,22.39,22.39,0,0,1-1-2.75c-.38-1.24-.78-2.61-1.19-4.11s-.8-3-1.17-4.51-.66-2.83-.9-4A3.12,3.12,0,0,1,2,61.88a1.81,1.81,0,0,1,.9-.21,1.22,1.22,0,0,1,1,.37,2.79,2.79,0,0,1,.49,1.18c.21,1,.46,2.11.74,3.37s.56,2.48.85,3.68.54,2.29.79,3.28.43,1.71.55,2.18h.14c.14-.42.34-1.06.61-1.9S8.63,72,9,70.92s.74-2.27,1.16-3.54.85-2.54,1.27-3.81a3.12,3.12,0,0,1,1.51-.35,1.52,1.52,0,0,1,1.63.92c.42,1.22.82,2.43,1.21,3.64l1.08,3.37c.33,1,.61,2,.84,2.77s.42,1.42.57,1.85h.17q.81-3.18,1.76-6.73T21.75,62a2.06,2.06,0,0,1,1.19-.32,1.5,1.5,0,0,1,1,.28,1.07,1.07,0,0,1,.35.88,9.57,9.57,0,0,1-.23,1.5c-.15.74-.36,1.6-.62,2.57s-.54,2-.86,3.14-.64,2.2-1,3.24-.64,2-.93,2.86a20.79,20.79,0,0,1-.76,2,1.85,1.85,0,0,1-.58.27,3.35,3.35,0,0,1-.94.12,3.26,3.26,0,0,1-1.11-.16.88.88,0,0,1-.58-.51c-.26-.63-.53-1.39-.83-2.25s-.6-1.82-.93-2.84-.67-2.1-1-3.23S13.23,67.25,12.9,66.15Z" style="fill:#e85740"/><path d="M30,71.79q1,4.6,6.06,4.61a7,7,0,0,0,2.68-.49,7.78,7.78,0,0,0,1.91-1.06,1.51,1.51,0,0,1,.84,1.34,1.33,1.33,0,0,1-.44,1,3.71,3.71,0,0,1-1.2.81,8.27,8.27,0,0,1-1.76.57,10.58,10.58,0,0,1-2.17.21,9.08,9.08,0,0,1-6.46-2.22Q27.07,74.29,27.07,70a10.13,10.13,0,0,1,.58-3.57,7.77,7.77,0,0,1,1.62-2.67,7.1,7.1,0,0,1,2.48-1.67,8.31,8.31,0,0,1,3.14-.58,7.79,7.79,0,0,1,2.93.53,6.69,6.69,0,0,1,2.31,1.5,6.92,6.92,0,0,1,1.51,2.29,7.6,7.6,0,0,1,.55,2.9,1.45,1.45,0,0,1-.36,1.11,1.61,1.61,0,0,1-1,.41Zm4.87-8a4.67,4.67,0,0,0-3.56,1.5,6.21,6.21,0,0,0-1.48,4.28l9.69-1.34a5.2,5.2,0,0,0-1.36-3.19A4.32,4.32,0,0,0,34.86,63.82Z" style="fill:#e85740"/><path d="M53.54,61.53a8.4,8.4,0,0,1,3,.53A6.76,6.76,0,0,1,59,63.64a7.37,7.37,0,0,1,1.62,2.68,11.48,11.48,0,0,1,.58,3.81,11.06,11.06,0,0,1-.6,3.84,7.21,7.21,0,0,1-1.68,2.68,6.68,6.68,0,0,1-2.59,1.57,10.3,10.3,0,0,1-3.31.51,11.17,11.17,0,0,1-3.12-.41,9.85,9.85,0,0,1-2.27-.93,3.34,3.34,0,0,1-1-.9,2.15,2.15,0,0,1-.28-1.18V55.43a5,5,0,0,1,.54-.16,3.36,3.36,0,0,1,.79-.08c1,0,1.49.42,1.49,1.26v6.31A8.16,8.16,0,0,1,51,61.9,7.61,7.61,0,0,1,53.54,61.53Zm-.43,2.33a5.43,5.43,0,0,0-2.24.44,6.53,6.53,0,0,0-1.7,1v10a6.06,6.06,0,0,0,1.53.74A7.2,7.2,0,0,0,53,76.4,6,6,0,0,0,55.21,76a4.37,4.37,0,0,0,1.67-1.14,5.39,5.39,0,0,0,1.1-2,9.29,9.29,0,0,0,.38-2.8A9.48,9.48,0,0,0,58,67.31a5.23,5.23,0,0,0-1.1-2,4.32,4.32,0,0,0-1.67-1.12A5.8,5.8,0,0,0,53.11,63.86Z" style="fill:#e85740"/><path d="M63.19,76.79a2,2,0,0,1,.51-1.41,1.82,1.82,0,0,1,1.43-.56,1.76,1.76,0,0,1,1.41.56A2.07,2.07,0,0,1,67,76.79a2,2,0,0,1-.49,1.37,1.77,1.77,0,0,1-1.41.57,1.82,1.82,0,0,1-1.43-.57A2,2,0,0,1,63.19,76.79Z" style="fill:#e85740"/><path d="M83.07,61.53a7.86,7.86,0,0,1,4.86,1.37,5.11,5.11,0,0,1,1.8,4.34v8.35a2,2,0,0,1-.3,1.18,2.91,2.91,0,0,1-.9.76,8.82,8.82,0,0,1-2.24.86,12.32,12.32,0,0,1-3.19.37A8.65,8.65,0,0,1,78,77.46a4.36,4.36,0,0,1-1.82-3.77,4.19,4.19,0,0,1,1.52-3.51,8.28,8.28,0,0,1,4.26-1.46l5-.5v-1a3,3,0,0,0-1.06-2.57A4.6,4.6,0,0,0,83,63.86a9,9,0,0,0-2.78.42,15.45,15.45,0,0,0-2.33,1,3.43,3.43,0,0,1-.51-.56,1.23,1.23,0,0,1-.23-.71,1.24,1.24,0,0,1,.25-.81,2.34,2.34,0,0,1,.78-.6,8.72,8.72,0,0,1,2.18-.76A13.17,13.17,0,0,1,83.07,61.53Zm0,14.91a8.39,8.39,0,0,0,2.45-.3,6.26,6.26,0,0,0,1.4-.58V70.44l-4.37.46a5.57,5.57,0,0,0-2.72.83A2.24,2.24,0,0,0,79,73.65a2.36,2.36,0,0,0,1,2.06A5.33,5.33,0,0,0,83.1,76.44Z" style="fill:#61909b"/><path d="M101.82,78.73a9.72,9.72,0,0,1-2.33-.28,7.57,7.57,0,0,1-1.79-.67v6.83a4.5,4.5,0,0,1-.53.16,3.21,3.21,0,0,1-.78.09c-1,0-1.51-.43-1.51-1.3V65a2.28,2.28,0,0,1,.24-1.13,2.9,2.9,0,0,1,1-.88,13.7,13.7,0,0,1,2.28-1,9.58,9.58,0,0,1,3-.44,10.54,10.54,0,0,1,3.26.49,6.84,6.84,0,0,1,2.64,1.54,7.38,7.38,0,0,1,1.77,2.66,10.45,10.45,0,0,1,.65,3.87,11.48,11.48,0,0,1-.58,3.81,7.44,7.44,0,0,1-1.64,2.7A6.78,6.78,0,0,1,105,78.2,9.41,9.41,0,0,1,101.82,78.73Zm-.39-2.33a5.36,5.36,0,0,0,4-1.5c1-1,1.49-2.6,1.49-4.81a8.35,8.35,0,0,0-.44-2.92,5.11,5.11,0,0,0-1.19-1.94,4.46,4.46,0,0,0-1.75-1.06,6.8,6.8,0,0,0-2.08-.31,6.47,6.47,0,0,0-2.15.31,10.11,10.11,0,0,0-1.58.71V75.27a5.73,5.73,0,0,0,1.58.81A6.36,6.36,0,0,0,101.43,76.4Z" style="fill:#61909b"/><path d="M121.06,78.73a9.58,9.58,0,0,1-2.32-.28,7.84,7.84,0,0,1-1.8-.67v6.83a4.5,4.5,0,0,1-.53.16,3.15,3.15,0,0,1-.78.09c-1,0-1.51-.43-1.51-1.3V65a2.18,2.18,0,0,1,.25-1.13,2.72,2.72,0,0,1,1-.88,13.22,13.22,0,0,1,2.27-1,9.63,9.63,0,0,1,3-.44,10.54,10.54,0,0,1,3.26.49,6.81,6.81,0,0,1,2.65,1.54,7.36,7.36,0,0,1,1.76,2.66,10.45,10.45,0,0,1,.65,3.87,11.22,11.22,0,0,1-.58,3.81,7.3,7.3,0,0,1-1.64,2.7,6.63,6.63,0,0,1-2.52,1.6A9.36,9.36,0,0,1,121.06,78.73Zm-.39-2.33a5.36,5.36,0,0,0,4-1.5c1-1,1.5-2.6,1.5-4.81a8.59,8.59,0,0,0-.44-2.92,5.25,5.25,0,0,0-1.2-1.94,4.46,4.46,0,0,0-1.75-1.06,6.8,6.8,0,0,0-2.08-.31,6.47,6.47,0,0,0-2.15.31,11,11,0,0,0-1.58.71V75.27a5.73,5.73,0,0,0,1.58.81A6.36,6.36,0,0,0,120.67,76.4Z" style="fill:#61909b"/><path d="M130.93,76.79a2,2,0,0,1,.51-1.41,1.82,1.82,0,0,1,1.43-.56,1.76,1.76,0,0,1,1.41.56,2.07,2.07,0,0,1,.49,1.41,2,2,0,0,1-.49,1.37,1.77,1.77,0,0,1-1.41.57,1.82,1.82,0,0,1-1.43-.57A2,2,0,0,1,130.93,76.79Z" style="fill:#61909b"/><path d="M159,75.59a1.74,1.74,0,0,1-.3,1.09,3.46,3.46,0,0,1-.93.78,8.13,8.13,0,0,1-2,.86,10.12,10.12,0,0,1-3,.41,12,12,0,0,1-3.49-.49,7.19,7.19,0,0,1-2.73-1.54,6.77,6.77,0,0,1-1.76-2.64,12.36,12.36,0,0,1,0-7.79,7.65,7.65,0,0,1,1.7-2.7A6.7,6.7,0,0,1,149,62a9.71,9.71,0,0,1,3.12-.49,8.43,8.43,0,0,1,2.19.28,8.63,8.63,0,0,1,1.83.7V55.43c.12,0,.3-.1.55-.16a3.13,3.13,0,0,1,.75-.08c1,0,1.52.42,1.52,1.26Zm-2.82-10.54a7.27,7.27,0,0,0-1.62-.84,5.78,5.78,0,0,0-2.12-.35,6.35,6.35,0,0,0-2.06.33,4.46,4.46,0,0,0-1.71,1.09,5.59,5.59,0,0,0-1.18,2,9.09,9.09,0,0,0-.44,3q0,3.24,1.55,4.69a5.84,5.84,0,0,0,4.13,1.44,6.7,6.7,0,0,0,2-.26,7.54,7.54,0,0,0,1.43-.65Z" style="fill:#303031"/><path d="M166.31,71.79q1,4.6,6.07,4.61a7,7,0,0,0,2.68-.49,7.88,7.88,0,0,0,1.9-1.06,1.52,1.52,0,0,1,.85,1.34,1.34,1.34,0,0,1-.45,1,3.77,3.77,0,0,1-1.19.81,8.56,8.56,0,0,1-1.77.57,10.55,10.55,0,0,1-2.16.21,9.09,9.09,0,0,1-6.47-2.22q-2.39-2.22-2.38-6.49a10.13,10.13,0,0,1,.58-3.57,7.77,7.77,0,0,1,1.62-2.67,7.14,7.14,0,0,1,2.49-1.67,8.26,8.26,0,0,1,3.13-.58,7.75,7.75,0,0,1,2.93.53,6.69,6.69,0,0,1,2.31,1.5A6.92,6.92,0,0,1,178,65.85a7.42,7.42,0,0,1,.55,2.9,1.49,1.49,0,0,1-.35,1.11,1.66,1.66,0,0,1-1,.41Zm4.87-8a4.67,4.67,0,0,0-3.56,1.5,6.26,6.26,0,0,0-1.48,4.28l9.69-1.34a5.2,5.2,0,0,0-1.36-3.19A4.3,4.3,0,0,0,171.18,63.82Z" style="fill:#303031"/><path d="M194.3,73.93a4.19,4.19,0,0,1-1.66,3.53,7.79,7.79,0,0,1-4.79,1.27,12.65,12.65,0,0,1-2.47-.23,8.37,8.37,0,0,1-1.92-.6,3.85,3.85,0,0,1-1.23-.85,1.39,1.39,0,0,1-.44-1,1.51,1.51,0,0,1,.23-.81,2.07,2.07,0,0,1,.68-.67,11.72,11.72,0,0,0,2.22,1.26,7.34,7.34,0,0,0,2.89.54q3.67,0,3.67-2.47c0-1.33-.81-2.2-2.43-2.6l-2.93-.78A6.24,6.24,0,0,1,183,68.91a3.91,3.91,0,0,1-1-2.76,4.36,4.36,0,0,1,.37-1.77,4.13,4.13,0,0,1,1.14-1.48,5.77,5.77,0,0,1,1.93-1,8.66,8.66,0,0,1,2.69-.37,9.32,9.32,0,0,1,4,.72c1,.48,1.52,1,1.52,1.68a1.5,1.5,0,0,1-.23.81,1.37,1.37,0,0,1-.62.52,11.62,11.62,0,0,0-1.79-.91,7,7,0,0,0-2.75-.49,4.7,4.7,0,0,0-2.52.59,1.9,1.9,0,0,0-.94,1.7,1.94,1.94,0,0,0,.53,1.37,3.41,3.41,0,0,0,1.76.85l2.44.59a7.8,7.8,0,0,1,3.59,1.79A4.25,4.25,0,0,1,194.3,73.93Z" style="fill:#303031"/><path d="M198.32,56.84a1.71,1.71,0,0,1,.51-1.25,1.79,1.79,0,0,1,1.32-.51,1.76,1.76,0,1,1,0,3.52,1.79,1.79,0,0,1-1.32-.51A1.69,1.69,0,0,1,198.32,56.84Zm3.24,21.36a4.5,4.5,0,0,1-.53.16,3.15,3.15,0,0,1-.78.09c-1,0-1.51-.43-1.51-1.27V62.06a4,4,0,0,1,.55-.16,3.29,3.29,0,0,1,.79-.09c1,0,1.48.44,1.48,1.31Z" style="fill:#303031"/><path d="M218,76.58a5.12,5.12,0,0,1-1.64.84,7.61,7.61,0,0,1-2.49.36,9.64,9.64,0,0,1-2.92-.44,6.54,6.54,0,0,1-2.42-1.41,6.91,6.91,0,0,1-1.65-2.52,10.28,10.28,0,0,1-.62-3.78,9.54,9.54,0,0,1,.6-3.52,7.07,7.07,0,0,1,1.67-2.54A7,7,0,0,1,211,62a10,10,0,0,1,3.28-.51,10.31,10.31,0,0,1,3,.4,9,9,0,0,1,2.28,1,3.46,3.46,0,0,1,.86.79,1.7,1.7,0,0,1,.34,1.08V79a7,7,0,0,1-.58,3,5.18,5.18,0,0,1-1.63,2A7.15,7.15,0,0,1,216.11,85a12.72,12.72,0,0,1-3,.35A10.83,10.83,0,0,1,210,85a8.53,8.53,0,0,1-1.7-.65,1.75,1.75,0,0,1-1.06-1.52,1.4,1.4,0,0,1,.23-.83,1.5,1.5,0,0,1,.58-.51,7.71,7.71,0,0,0,2.08,1,8.6,8.6,0,0,0,2.92.48,5.68,5.68,0,0,0,3.62-1A3.9,3.9,0,0,0,218,78.8Zm-3.81-1.13a5.31,5.31,0,0,0,2.31-.44,6.12,6.12,0,0,0,1.5-1V64.84a6.57,6.57,0,0,0-1.5-.69,7.08,7.08,0,0,0-2.13-.29,5.17,5.17,0,0,0-3.83,1.44,5.88,5.88,0,0,0-1.42,4.3,8.21,8.21,0,0,0,.38,2.7,4.82,4.82,0,0,0,1.08,1.81,4.06,4.06,0,0,0,1.62,1A6.19,6.19,0,0,0,214.14,75.45Z" style="fill:#303031"/><path d="M236.15,64.77a4.53,4.53,0,0,0-3-.91,8,8,0,0,0-2.5.35,8.82,8.82,0,0,0-1.87.81V78.2a4,4,0,0,1-.53.16,3.07,3.07,0,0,1-.77.09c-1,0-1.52-.43-1.52-1.27v-12a2.27,2.27,0,0,1,.3-1.22,3.35,3.35,0,0,1,1-.93,10.08,10.08,0,0,1,2.43-1,11.65,11.65,0,0,1,3.42-.46A8,8,0,0,1,238.23,63a5.43,5.43,0,0,1,1.85,4.55V78.2a4,4,0,0,1-.55.16,3.16,3.16,0,0,1-.76.09c-1,0-1.51-.43-1.51-1.27V67.66A3.54,3.54,0,0,0,236.15,64.77Z" style="fill:#303031"/><path d="M243.29,76.79a2,2,0,0,1,.51-1.41,1.8,1.8,0,0,1,1.42-.56,1.73,1.73,0,0,1,1.41.56,2.08,2.08,0,0,1,.5,1.41,2,2,0,0,1-.5,1.37,1.74,1.74,0,0,1-1.41.57,1.8,1.8,0,0,1-1.42-.57A2,2,0,0,1,243.29,76.79Z" style="fill:#303031"/></svg>